HIERARCHY
ROOT ui
{
	 OFFSET 0 0 0
	 CHANNELS 3 XPosition YPosition Z Position
	 EndSite
	 {
	 OFFSET 0 -1 0
	 }
}
ROOT li
{
	 OFFSET 0 0 0
	 CHANNELS 3 XPosition YPosition Z Position
	 EndSite
	 {
	 OFFSET 0 -1 0
	 }
}
ROOT ul
{
	 OFFSET 0 0 0
	 CHANNELS 3 XPosition YPosition Z Position
	 EndSite
	 {
	 OFFSET 0 -1 0
	 }
}
ROOT ll
{
	 OFFSET 0 0 0
	 CHANNELS 3 XPosition YPosition Z Position
	 EndSite
	 {
	 OFFSET 0 -1 0
	 }
}
ROOT tt
{
	 OFFSET 0 0 0
	 CHANNELS 3 XPosition YPosition Z Position
	 EndSite
	 {
	 OFFSET 0 -1 0
	 }
}
ROOT tb
{
	 OFFSET 0 0 0
	 CHANNELS 3 XPosition YPosition Z Position
	 EndSite
	 {
	 OFFSET 0 -1 0
	 }
}
ROOT td
{
	 OFFSET 0 0 0
	 CHANNELS 3 XPosition YPosition Z Position
	 EndSite
	 {
	 OFFSET 0 -1 0
	 }
}
ROOT v
{
	 OFFSET 0 0 0
	 CHANNELS 3 XPosition YPosition Z Position
	 EndSite
	 {
	 OFFSET 0 -1 0
	 }
}
ROOT bn
{
	 OFFSET 0 0 0
	 CHANNELS 3 XPosition YPosition Z Position
	 EndSite
	 {
	 OFFSET 0 -1 0
	 }
}
MOTION
Frames: 18
Frame Time: 0.002
-0.0047935528755187985	6.568670272827148E-4	0		0.46487362670898436	-2.358859619140625	0		-1.082639404296875	0.025581110000610353	0		-0.8605167846679688	-2.54312109375	0		1.537827392578125	-0.6006996459960937	0		3.292301025390625	0.001418949007987976	0		4.72223095703125	0.10938433837890625	0		5.6084736328125	0.15239614868164061	0		-0.28151513671875	5.88885009765625	0		
0.0505562744140625	0.002794148921966553	0		0.522177490234375	-2.360740234375	0		-1.0843099365234374	0.025145416259765626	0		-0.8581759033203125	-2.539587890625	0		1.539181884765625	-0.5971758422851563	0		3.31768115234375	0.0077538700103759765	0		4.72056201171875	0.1089095458984375	0		5.62174462890625	0.14380361938476563	0		-0.283144775390625	5.8884091796875	0		
-0.004109951019287109	0.0037499639987945556	0		0.4825516052246094	-2.351898681640625	0		-1.08598486328125	0.02471959686279297	0		-0.8358490600585937	-2.5371923828125	0		1.5344727783203125	-0.601599609375	0		3.288955322265625	4.93234008550644E-4	0		4.718888671875	0.10844058227539062	0		5.61107080078125	0.1433924560546875	0		-0.2658044738769531	5.8838369140625	0		
0.04017992401123047	-0.00501115083694458	0		0.5058445739746094	-2.357509033203125	0		-1.0935975341796875	0.02935059928894043	0		-0.8765116577148437	-2.536320068359375	0		1.53281787109375	-0.6020345458984375	0		3.310319580078125	0.0018740420341491698	0		4.7172412109375	0.10798080444335938	0		5.60942236328125	0.14292359924316406	0		-0.28736798095703125	5.888564453125	0		
-0.0073601951599121095	0.0029204349517822263	0		0.47724600219726565	-2.3547216796875	0		-1.0892347412109376	0.02390873146057129	0		-0.8302097778320312	-2.54707373046875	0		1.52516064453125	-0.6094111938476563	0		3.2916533203125	-0.007437207221984863	0		4.70859130859375	0.10058489990234375	0		5.5978232421875	0.14253990173339845	0		-0.2869306335449219	5.88614501953125	0		
0.04409994125366211	0.0011385890245437622	0		0.4886625671386719	-2.35921240234375	0		-1.0848026123046874	0.018484769821166994	0		-0.8647199096679687	-2.541212158203125	0		1.52967529296875	-0.6028604125976562	0		3.315269287109375	0.01195590877532959	0		4.72310693359375	0.1060333251953125	0		5.605404296875	0.15702944946289063	0		-0.2884055480957031	5.88575732421875	0		
-0.007315351963043213	0.005137872219085693	0		0.4892070617675781	-2.3576025390625	0		-1.08718212890625	0.027132646560668945	0		-0.8251783447265625	-2.539877197265625	0		1.53125244140625	-0.5992686157226562	0		3.28677197265625	0.004751984119415283	0		4.7126708984375	0.10668365478515625	0		5.59484912109375	0.14166921997070311	0		-0.29177716064453124	5.88740478515625	0		
0.04130307006835938	4.1883599758148194E-4	0		0.5018380737304687	-2.357060302734375	0		-1.1054874267578125	0.03292169952392578	0		-0.880525146484375	-2.535816650390625	0		1.5268658447265624	-0.6036112670898437	0		3.30842822265625	0.005197454929351806	0		4.71132275390625	0.10628643798828125	0		5.5935	0.1412603454589844	0		-0.2930642700195312	5.8870595703125	0		
-0.03993521881103516	0.0016868619918823243	0		0.47157156372070314	-2.356176025390625	0		-1.0948095703125	0.022519956588745116	0		-0.8458400268554688	-2.5413994140625	0		1.5225814208984374	-0.6079317626953125	0		3.280129150390625	-0.0019649660587310793	0		4.71502587890625	0.09887274169921875	0		5.59225341796875	0.14087127685546874	0		-0.3093265380859375	5.87584912109375	0		
0.03489253997802735	-0.003179332971572876	0		0.4704032592773438	-2.356483154296875	0		-1.09594970703125	0.02223134231567383	0		-0.8849871826171875	-2.538408447265625	0		1.521433837890625	-0.6082513427734375	0		3.301099609375	0.012530610084533692	0		4.7179326171875	0.10448782348632812	0		5.59517431640625	0.1484735412597656	0		-0.2953160095214844	5.886439453125	0		
-0.015105079650878907	9.082469940185547E-4	0		0.480301025390625	-2.36284765625	0		-1.096978271484375	0.021967708587646486	0		-0.8710768432617187	-2.5427861328125	0		1.5234273681640624	-0.604569091796875	0		3.282004638671875	0.003348130941390991	0		4.7169072265625	0.10415629577636719	0		5.590087890625	0.1401590118408203	0		-0.2962735595703125	5.886166015625	0		
-0.022928350448608397	0.012708823204040527	0		0.4734491882324219	-2.351060546875	0		-1.0928612060546874	0.025692035675048828	0		-0.8809456787109375	-2.532960205078125	0		1.522507080078125	-0.6048389892578125	0		3.30814306640625	0.009855361938476562	0		4.7159970703125	0.10385026550292968	0		5.59917626953125	0.13976539611816408	0		-0.27715338134765627	5.88076904296875	0		
0.036180469512939455	-9.650170207023621E-4	0		0.4945611572265625	-2.360456298828125	0		-1.0276552734375	0.024985586166381836	0		-0.8488212280273437	-2.54042236328125	0		1.52170751953125	-0.6050830078125	0		3.297298583984375	0.002665255069732666	0		4.710267578125	0.111608154296875	0		5.607384765625	0.13940615844726562	0		-0.31391305541992187	5.8758154296875	0		
0.03551295852661133	-0.001167240023612976	0		0.4668905029296875	-2.357461669921875	0		-1.1112752685546874	0.031416255950927736	0		-0.888508544921875	-2.539322998046875	0		1.5180032958984375	-0.6092792358398438	0		3.279631591796875	0.002553822994232178	0		4.710498046875	0.09734884643554688	0		5.5877197265625	0.13928387451171875	0		-0.2994329833984375	5.88650439453125	0		
0.03094815444946289	-0.004316769123077393	0		0.49330068969726565	-2.360847900390625	0		-1.0998927001953125	0.02115875244140625	0		-0.889076904296875	-2.5394931640625	0		1.5174547119140624	-0.6094739990234375	0		3.28503662109375	-0.004703736782073974	0		4.71894287109375	0.09505607604980469	0		5.5871787109375	0.13904747009277343	0		-0.2979302062988281	5.8843134765625	0		
-0.018444662094116212	-1.0758800059556961E-4	0		0.45086422729492187	-2.3596953125	0		-1.0952867431640625	0.024972816467285157	0		-0.8725391845703125	-2.541770751953125	0		1.5200550537109374	-0.605668212890625	0		3.303746826171875	0.012965909004211426	0		4.7006943359375	0.11799221801757813	0		5.5958681640625	0.15377177429199218	0		-0.2642655029296875	5.88890283203125	0		
0.03725090026855469	0.0013339979648590088	0		0.5095277709960937	-2.360279541015625	0		-1.0956044921875	0.024842756271362305	0		-0.8708602905273437	-2.53991748046875	0		1.5227628173828125	-0.6018396606445312	0		3.28429443359375	-0.005052488803863525	0		4.70922021484375	0.09675503540039063	0		5.58643896484375	0.1386617431640625	0		-0.30056268310546874	5.886037109375	0		
-0.04598769378662109	-1.6084299981594086E-4	0		0.459396240234375	-2.346025390625	0		-1.106822509765625	0.025812589645385742	0		-0.8490924682617188	-2.53919677734375	0		1.5195037841796875	-0.6059434204101563	0		3.278121337890625	0.0018568899631500244	0		4.71304052734375	0.10258294677734375	0		5.58621337890625	0.13851429748535157	0		-0.2667214660644531	5.89066455078125	0		
